<?xml version="1.0" encoding="UTF-8"?>
<svg version="1.1" xmlns="http://www.w3.org/2000/svg" width="500" height="685">
<path d="M0 0 C134.64 0 269.28 0 408 0 C408 134.97 408 269.94 408 409 C273.36 409 138.72 409 0 409 C0 274.03 0 139.06 0 0 Z " fill="#FEF100" transform="translate(46,44)"/>
<path d="M0 0 C17.16 0 34.32 0 52 0 C51.24065061 3.79674697 50.52187499 6.43137804 49.01318359 9.87744141 C48.60066345 10.82644318 48.18814331 11.77544495 47.76312256 12.75320435 C47.31277649 13.77566254 46.86243042 14.79812073 46.3984375 15.8515625 C45.92972229 16.92663055 45.46100708 18.00169861 44.97808838 19.10934448 C43.44807398 22.61647993 41.91145623 26.12068257 40.375 29.625 C38.79139513 33.25184155 37.20960193 36.8794697 35.62789917 40.50714111 C34.57370637 42.92466055 33.5189576 45.34193761 32.46365356 47.75897217 C28.14379752 57.65553032 23.86863531 67.57055478 19.625 77.5 C19.02775992 78.89640696 18.43051076 80.29281004 17.83325195 81.68920898 C16.73086739 84.26733159 15.62911268 86.84572208 14.52783203 89.42431641 C12.21065668 94.84735095 9.88659025 100.26742623 7.5625 105.6875 C6.85543182 107.33722376 6.14839553 108.98696118 5.44140625 110.63671875 C4.96574219 111.74660156 4.49007812 112.85648437 4 114 C4.64839844 113.6390625 5.29679687 113.278125 5.96484375 112.90625 C17.54344708 107.42885552 33.8673154 106.04007505 46.140625 110.16796875 C49.3125 111.5625 49.3125 111.5625 51.86328125 113.00390625 C54.51235778 114.23885052 55.26595057 113.85170485 58 113 C59.3738116 112.4966603 60.73830074 111.96739957 62.09423828 111.41772461 C62.88831085 111.09746811 63.68238342 110.77721161 64.5005188 110.44725037 C65.34855072 110.10243118 66.19658264 109.757612 67.0703125 109.40234375 C68.8710808 108.67640018 70.67186245 107.95048971 72.47265625 107.22460938 C75.30853072 106.07778825 78.14393857 104.92982575 80.97900391 103.78100586 C83.71662182 102.67274195 86.45587928 101.56861126 89.1953125 100.46484375 C90.04739288 100.11800034 90.89947327 99.77115692 91.77737427 99.4138031 C92.56514252 99.09669876 93.35291077 98.77959442 94.16455078 98.45288086 C94.85864044 98.17165878 95.5527301 97.89043671 96.26785278 97.60069275 C98 97 98 97 100 97 C97.46654527 104.97737606 94.39177281 112.7125678 91.26953125 120.47265625 C90.68867103 121.92196483 90.10805035 123.37136944 89.52764893 124.82086182 C88.28003049 127.93526445 87.0308035 131.04901505 85.78030396 134.16226196 C83.7843774 139.13143801 81.79217349 144.10210124 79.80053711 149.07299805 C76.98349453 156.10319767 74.16503468 163.13282742 71.34570312 170.16210938 C65.26908353 185.31356554 59.20246579 200.46902434 53.13846111 215.6255331 C51.13762228 220.62635231 49.13577606 225.62676643 47.13304043 230.62682629 C40.29987187 247.68825939 33.49729621 264.76141776 26.74609375 281.85546875 C26.26489421 283.07311637 26.26489421 283.07311637 25.77397346 284.31536293 C24.86337271 286.62031367 23.95381957 288.92567465 23.04467773 291.23120117 C22.64754609 292.23641973 22.64754609 292.23641973 22.24239159 293.26194572 C20.44589236 297.82353554 18.7120112 302.40601452 17 307 C16.67 307 16.34 307 16 307 C16.71921419 300.48749137 17.88772212 294.12452367 19.1796875 287.703125 C19.39311798 286.63310242 19.60654846 285.56307983 19.82644653 284.46063232 C20.27724805 282.20459084 20.7294951 279.94883778 21.18310547 277.69335938 C21.86985932 274.27558367 22.55048375 270.85662803 23.23046875 267.4375 C23.67150533 265.23430097 24.11290012 263.0311736 24.5546875 260.828125 C24.75480438 259.8214679 24.95492126 258.81481079 25.16110229 257.77764893 C26.39147556 251.68491758 27.79597543 245.66113263 29.35418701 239.6436615 C30.27008005 235.89441644 30.84316459 232.13157237 31.375 228.3125 C32.96885719 217.64176116 35.1196869 207.1007929 37.28222656 196.53320312 C38.06170179 192.69627606 38.82576345 188.85640935 39.5859375 185.015625 C39.8550347 183.65860464 40.12415895 182.30158965 40.39331055 180.94458008 C40.91180887 178.33010714 41.42863843 175.71532243 41.94458008 173.1003418 C43.1539413 167.02251598 44.42130341 160.99306145 46 155 C45.29955566 155.31525635 44.59911133 155.6305127 43.87744141 155.95532227 C25.0637498 164.41799216 6.21301145 172.79364794 -12.671875 181.09619141 C-16.32210161 182.70117134 -19.97064059 184.3099527 -23.61885071 185.91950989 C-26.49559872 187.18790597 -29.37353979 188.45357727 -32.25180054 189.71853638 C-33.59796707 190.31069016 -34.94370991 190.90380834 -36.28897095 191.49801636 C-44.77426429 195.24462733 -53.31042012 198.75314344 -62 202 C-61.44132568 195.69496129 -59.92027866 190.26321482 -57.8125 184.3125 C-55.41136161 177.3386952 -53.19818832 170.36318559 -51.25 163.25 C-48.66481181 153.88671783 -45.60955585 144.69847847 -42.5 135.5 C-39.47473167 126.55035215 -36.48799077 117.61766678 -34 108.5 C-31.3113743 98.64707227 -28.03805735 89.00412967 -24.76727295 79.33358765 C-21.57237462 69.87647931 -18.57984282 60.40881909 -15.92797852 50.78222656 C-14.29604279 44.89553718 -12.33968557 39.187636 -10.21875 33.45703125 C-8.36512662 28.19915723 -6.84258961 22.85416467 -5.30859375 17.49609375 C-3.60543225 11.64433587 -1.7923279 5.82506567 0 0 Z " fill="#EC1E24" transform="translate(223,100)"/>
<path d="M0 0 C10.89 0 21.78 0 33 0 C35.31 3.63 37.62 7.26 40 11 C42.23107783 14.24543996 44.47408812 17.47423857 46.75 20.6875 C47.98751825 22.44493302 49.22449171 24.20274978 50.4609375 25.9609375 C51.06389648 26.8178418 51.66685547 27.67474609 52.28808594 28.55761719 C54.67317239 31.9604131 57.0275667 35.38366484 59.375 38.8125 C64.77401872 46.69426412 70.23262551 54.53424067 75.69482422 62.37231445 C76.68313232 63.79096802 76.68313232 63.79096802 77.69140625 65.23828125 C78.28123291 66.08430908 78.87105957 66.93033691 79.47875977 67.80200195 C80.669764 69.52285112 81.83912328 71.25868492 83 73 C83.33 48.91 83.66 24.82 84 0 C94.56 0 105.12 0 116 0 C116 42.24 116 84.48 116 128 C104.45 128 92.9 128 81 128 C72.05334103 118.49417484 72.05334103 118.49417484 70.33203125 114.203125 C68.25213077 109.43368307 65.74040406 105.44395518 62.6875 101.25 C61.79613075 99.96064177 60.90822859 98.66888118 60.0234375 97.375 C57.70518077 94.01392335 55.37382249 90.6621319 53.0390625 87.3125 C52.34079346 86.31057617 51.64252441 85.30865234 50.9230957 84.27636719 C49.56085168 82.32305581 48.19748875 80.37052405 46.83276367 78.41894531 C42.12459877 71.67012095 37.56720109 64.85080163 33 58 C32.67 81.1 32.34 104.2 32 128 C21.44 128 10.88 128 0 128 C0 85.76 0 43.52 0 0 Z " fill="#00AEEF" transform="translate(338,513)"/>
<path d="M0 0 C10.621875 -0.061875 21.24375 -0.12375 32.1875 -0.1875 C37.17846802 -0.22846802 37.17846802 -0.22846802 42.27026367 -0.27026367 C44.94449502 -0.27903579 47.61873041 -0.286678 50.29296875 -0.29296875 C50.96886551 -0.30080887 51.64476227 -0.30864899 52.34114075 -0.31672668 C66.27785568 -0.47000166 78.9148513 0.83036499 90 10 C99.40488946 19.75516468 103.40565374 30.9743615 103.3125 44.375 C103.30512817 45.63062744 103.30512817 45.63062744 103.29760742 46.91162109 C103.08152704 58.30515197 99.33624643 68.89887082 91.62109375 77.52734375 C79.01121146 88.98258622 64.84295703 89.44333907 48.75 89.1875 C43.2225 89.125625 37.695 89.06375 32 89 C32 101.87 32 114.74 32 128 C21.44 128 10.88 128 0 128 C0 85.76 0 43.52 0 0 Z M32 28 C32 38.89 32 49.78 32 61 C36.145625 61.061875 40.29125 61.12375 44.5625 61.1875 C45.85615479 61.21481201 47.14980957 61.24212402 48.48266602 61.27026367 C54.75568518 61.31553338 59.5327051 61.20889909 65 58 C70.13611827 52.45839871 70.34229139 48.60585713 70.28515625 41.2109375 C69.81495147 35.91630288 67.90157568 33.77889338 64.0625 30.1875 C59.98054966 27.83728617 55.65855205 27.87867409 51.04296875 27.90234375 C49.53899536 27.90609009 49.53899536 27.90609009 48.00463867 27.90991211 C46.74498291 27.91901611 45.48532715 27.92812012 44.1875 27.9375 C38.1546875 27.9684375 38.1546875 27.9684375 32 28 Z " fill="#00AEEF" transform="translate(46,513)"/>
<path d="M0 0 C10.89 0 21.78 0 33 0 C33 32.67 33 65.34 33 99 C52.8 99 72.6 99 93 99 C93 108.57 93 118.14 93 128 C62.31 128 31.62 128 0 128 C0 85.76 0 43.52 0 0 Z " fill="#00AEEF" transform="translate(195,513)"/>
<path d="M0 0 C1.29067383 -0.01836914 1.29067383 -0.01836914 2.60742188 -0.03710938 C11.58986822 -0.05741634 18.67867512 1.58790705 26.5625 5.8125 C34.98263535 9.94913319 42.24186014 10.96275692 51.328125 7.9296875 C55.37114957 6.46652929 59.3439208 4.84006274 63.3125 3.1875 C72.50907281 -0.57661451 81.53508814 -0.10007094 91.3125 0.1875 C91.19132813 0.96351563 91.07015625 1.73953125 90.9453125 2.5390625 C89.67199952 10.74703387 88.47162057 18.96267642 87.3125 27.1875 C86.19875 27.25066406 85.085 27.31382812 83.9375 27.37890625 C72.4403972 28.23082521 63.59308509 31.11303192 53.3125 36.1875 C45.62197155 39.85879751 35.56564178 39.33652333 27.625 36.5625 C22.62878926 34.47887848 17.81555353 31.99977243 13.0390625 29.45703125 C1.09694702 23.89659066 -13.08551429 28.07103325 -24.84375 32.1015625 C-28.61435735 33.54143729 -32.1067088 35.33079345 -35.6875 37.1875 C-36.3475 37.1875 -37.0075 37.1875 -37.6875 37.1875 C-37.6875 28.2775 -37.6875 19.3675 -37.6875 10.1875 C-26.43391148 4.56070574 -26.43391148 4.56070574 -20.3125 2.9375 C-19.14976562 2.62296875 -17.98703125 2.3084375 -16.7890625 1.984375 C-15.76554687 1.72140625 -14.74203125 1.4584375 -13.6875 1.1875 C-13.05529541 1.00952881 -12.42309082 0.83155762 -11.77172852 0.64819336 C-7.89849645 -0.20793747 -3.95071309 0.0028943 0 0 Z " fill="#04AEEB" transform="translate(166.6875,309.8125)"/>
<path d="M0 0 C3.89105594 1.60252233 7.60284083 2.59275567 11.76953125 3.140625 C12.59710938 3.25921875 13.4246875 3.3778125 14.27734375 3.5 C21.74746702 4.06624841 27.02802137 1.47207686 33.41015625 -2.03515625 C40.85755603 -6.07926752 46.38147394 -7.41252076 54.76953125 -7.359375 C56.29332397 -7.35296997 56.29332397 -7.35296997 57.84790039 -7.34643555 C66.55569712 -7.15121203 73.90516813 -5.68298492 81.76953125 -1.859375 C82.48447754 -1.59342529 83.19942383 -1.32747559 83.93603516 -1.0534668 C86.46359911 0.09651623 87.97164321 1.00890279 89.76953125 3.140625 C90.77169982 7.77281087 90.52300989 12.24183445 90.26953125 16.953125 C90.2334375 18.21833984 90.19734375 19.48355469 90.16015625 20.78710938 C90.06594001 23.90802244 89.93451322 27.02278308 89.76953125 30.140625 C85.3200621 28.37982273 81.00926362 26.40378381 76.68359375 24.359375 C70.04276598 21.58197786 64.07643891 20.7245892 56.95703125 20.703125 C56.07354004 20.69925781 55.19004883 20.69539063 54.27978516 20.69140625 C47.35169638 20.81409515 42.59037523 22.35030799 36.76953125 26.140625 C36.10953125 26.140625 35.44953125 26.140625 34.76953125 26.140625 C35.17974002 24.82609234 35.59821378 23.51413947 36.01953125 22.203125 C36.2515625 21.47222656 36.48359375 20.74132812 36.72265625 19.98828125 C37.66657205 17.42068938 38.71788555 14.95830343 39.83496094 12.46264648 C40.37766632 11.24822121 40.37766632 11.24822121 40.93133545 10.00926208 C41.20794006 9.39261185 41.48454468 8.77596161 41.76953125 8.140625 C41.2522345 8.35138168 40.73493774 8.56213837 40.20196533 8.77928162 C34.8175901 10.97236742 29.43170268 13.16170672 24.04492188 15.34887695 C22.03476564 16.16562458 20.02499691 16.98332661 18.015625 17.80200195 C15.12731657 18.97858807 12.2376319 20.15173472 9.34765625 21.32421875 C8.44960266 21.69091171 7.55154907 22.05760468 6.62628174 22.43540955 C5.78571228 22.7756868 4.94514282 23.11596405 4.07910156 23.46655273 C3.34185852 23.7663353 2.60461548 24.06611786 1.84503174 24.37498474 C-0.18403615 25.12349628 -2.10036812 25.75999583 -4.23046875 26.140625 C-6.3671875 25.14453125 -6.3671875 25.14453125 -8.91796875 23.703125 C-15.49191172 20.79760453 -21.65623815 20.60696345 -28.79296875 20.578125 C-30.3711438 20.55697632 -30.3711438 20.55697632 -31.98120117 20.53540039 C-38.58664196 20.6173691 -43.87126312 21.73059554 -49.96850586 24.28540039 C-52.23046875 25.140625 -52.23046875 25.140625 -55.23046875 25.140625 C-53.49305153 20.89512818 -51.73283067 16.66012433 -49.95092773 12.43310547 C-49.34822829 10.99434084 -48.7518074 9.55292914 -48.16186523 8.10888672 C-47.31186346 6.03142233 -46.43960397 3.96457995 -45.5625 1.8984375 C-45.3039473 1.25254669 -45.04539459 0.60665588 -44.77900696 -0.05880737 C-43.48062258 -3.05867828 -42.61874348 -4.64149394 -39.72924805 -6.26293945 C-26.16822415 -9.49983065 -12.37206594 -5.38338911 0 0 Z " fill="#05AEEA" transform="translate(281.23046875,188.859375)"/>
<path d="M0 0 C1.12535156 0.4434375 2.25070312 0.886875 3.41015625 1.34375 C6.60102276 4.6164336 6.43296632 5.82365555 6.5859375 10.296875 C6.54607039 12.78192502 6.47453921 15.26662429 6.375 17.75 C6.33439453 19.65458984 6.33439453 19.65458984 6.29296875 21.59765625 C6.2222359 24.73347906 6.12356492 27.86588663 6 31 C2.17471886 29.49523604 -1.49172747 27.80061999 -5.1875 26 C-15.18426693 21.38956756 -26.45079276 18.80398783 -37.3125 22.0625 C-42.08509358 23.85222259 -46.61578103 26.21481578 -51.12817383 28.57446289 C-59.67045746 33.01568113 -70.07980533 33.71699381 -79.3671875 31.0234375 C-82.3035176 29.78026398 -85.1452899 28.41931362 -88 27 C-89.90947593 26.21152247 -91.82582119 25.439385 -93.75 24.6875 C-94.56984375 24.36136719 -95.3896875 24.03523438 -96.234375 23.69921875 C-96.81703125 23.46847656 -97.3996875 23.23773438 -98 23 C-97.26905294 17.94514073 -95.31619096 13.40096821 -93.4375 8.6875 C-93.10814453 7.85154297 -92.77878906 7.01558594 -92.43945312 6.15429688 C-91.63001123 4.10136454 -90.81676543 2.05002714 -90 0 C-86.55529221 0.41336494 -83.40699189 0.85417048 -80.1328125 2.02734375 C-72.19557494 4.49164818 -62.03586042 4.64790463 -54.3359375 1.50390625 C-51.27755314 -0.30043404 -51.27755314 -0.30043404 -48.640625 -2.2734375 C-35.16090422 -11.08710109 -13.40150204 -6.96430857 0 0 Z " fill="#04AEEB" transform="translate(365,316)"/>
<path d="M0 0 C0.71494629 0.26594971 1.42989258 0.53189941 2.16650391 0.8059082 C4.69406786 1.95589123 6.20211196 2.86827779 8 5 C9.00216857 9.63218587 8.75347864 14.10120945 8.5 18.8125 C8.46390625 20.07771484 8.4278125 21.34292969 8.390625 22.64648438 C8.29640876 25.76739744 8.16498197 28.88215808 8 32 C2.9637185 30.01610731 -1.8726756 27.69312359 -6.74609375 25.33984375 C-12.69615436 22.88981879 -18.53305582 22.79235021 -24.875 22.75 C-25.63941406 22.729375 -26.40382813 22.70875 -27.19140625 22.6875 C-35.52802562 22.63088459 -41.27603841 25.5070004 -48.375 29.6875 C-56.62609111 34.2106885 -64.84495537 33.65393176 -74 33 C-73.32795559 26.92058288 -71.21819954 21.42951027 -69.0625 15.75 C-68.55106445 14.24179687 -68.55106445 14.24179687 -68.02929688 12.703125 C-66.91436067 9.80779329 -65.89516128 7.46036492 -64 5 C-61.39976384 3.88876041 -59.18582238 3.53286586 -56.37866211 3.25488281 C-53.27958542 2.9228048 -51.30467981 1.73787742 -48.75 0 C-35.13117544 -9.14015071 -14.27618018 -6.94099997 0 0 Z " fill="#05AEEA" transform="translate(363,251)"/>
<path d="M0 0 C-1.67765015 8.54076441 -4.34002181 16.72564036 -7 25 C-10.59752957 24.3897048 -13.64973416 23.3623844 -17 21.9375 C-30.60522681 16.97195599 -44.48645583 20.94496755 -57.21899414 26.69799805 C-60.16405764 28.0945292 -63.07916038 29.55348895 -66 31 C-66 21.76 -66 12.52 -66 3 C-44.74013979 -7.6299301 -21.80589167 -12.16097805 0 0 Z " fill="#03AEEB" transform="translate(195,189)"/>
<path d="M0 0 C-1.16471223 6.35731892 -2.62001564 12.48182119 -4.625 18.625 C-4.85445312 19.34300781 -5.08390625 20.06101562 -5.3203125 20.80078125 C-5.87539144 22.53540295 -6.43697357 24.26794159 -7 26 C-8.56234375 26.11214844 -8.56234375 26.11214844 -10.15625 26.2265625 C-22.17465138 27.2649456 -32.54884773 30.21764486 -43.33203125 35.69140625 C-46 37 -46 37 -48 37 C-48 28.09 -48 19.18 -48 10 C-31.45515883 1.91141098 -18.31826707 -0.68175629 0 0 Z " fill="#03AEEB" transform="translate(177,246)"/>
<path d="M0 0 C1.1027124 0.00064453 2.2054248 0.00128906 3.34155273 0.00195312 C11.39941344 0.1498366 17.74292459 1.14993039 24.6875 5.5 C24.6875 6.16 24.6875 6.82 24.6875 7.5 C23.64299683 7.90557129 23.64299683 7.90557129 22.57739258 8.31933594 C7.284746 14.26737648 -7.93945395 20.34553917 -23.06713867 26.70214844 C-24.22060791 27.18458008 -25.37407715 27.66701172 -26.5625 28.1640625 C-27.57828125 28.59154785 -28.5940625 29.0190332 -29.640625 29.45947266 C-31.86752107 30.32670868 -33.98159158 30.99705101 -36.3125 31.5 C-35.38683254 26.33637803 -33.6039544 21.7761725 -31.625 16.9375 C-31.29822266 16.08736328 -30.97144531 15.23722656 -30.63476562 14.36132812 C-28.0816232 8.13712813 -25.61469406 5.43700935 -19.35986328 2.62084961 C-12.99570117 0.13884082 -6.76816716 -0.03674192 0 0 Z " fill="#FCEE02" transform="translate(252.3125,208.5)"/>
<path d="M0 0 C-0.52488082 4.63644726 -1.19211295 9.20360392 -2.0390625 13.79296875 C-2.30904053 15.26092896 -2.30904053 15.26092896 -2.58447266 16.75854492 C-2.72159668 17.4982251 -2.8587207 18.23790527 -3 19 C-3.69448242 18.97905273 -4.38896484 18.95810547 -5.10449219 18.93652344 C-23.02300301 18.13045112 -23.02300301 18.13045112 -40 23 C-48.61567893 27.02326692 -55.36364583 30.06196556 -65 29 C-61.52526944 26.08936704 -57.66106624 24.3556388 -53.54296875 22.55859375 C-52.81091721 22.234319 -52.07886566 21.91004425 -51.32463074 21.57594299 C-48.94780634 20.52468211 -46.56779552 19.48087471 -44.1875 18.4375 C-42.55600119 17.71844182 -40.92465407 16.99903937 -39.29345703 16.27929688 C-35.26989891 14.50558485 -31.2435314 12.73835095 -27.21636963 10.97283936 C-25.17229923 10.07562794 -23.12947845 9.17566537 -21.08740234 8.27392578 C-17.85171568 6.84518686 -14.61397834 5.42125763 -11.375 4 C-9.96577271 3.37822876 -9.96577271 3.37822876 -8.52807617 2.74389648 C-7.68092041 2.37466064 -6.83376465 2.0054248 -5.9609375 1.625 C-4.87498291 1.14933594 -4.87498291 1.14933594 -3.76708984 0.6640625 C-2 0 -2 0 0 0 Z " fill="#11A9DF" transform="translate(269,255)"/>
</svg>
